<svg width="12" height="12" viewBox="0 0 12 12" fill="none" xmlns="http://www.w3.org/2000/svg">
<path d="M10.3531 0.849289L10.3627 0.839776C10.3754 0.839831 10.3866 0.84147 10.3961 0.844696C10.4056 0.847921 10.4168 0.84956 10.4295 0.849615L10.3436 0.839695C10.4582 0.840184 10.568 0.861352 10.6729 0.903198C10.7778 0.945044 10.8715 1.00754 10.9539 1.09069C10.9666 1.10348 10.9777 1.11786 10.9872 1.13382C10.9967 1.14979 11.0078 1.16416 11.0204 1.17696L10.9539 1.09069C11.0364 1.17384 11.0965 1.26963 11.1342 1.37806C11.172 1.4865 11.1938 1.59486 11.1997 1.70316L11.1727 10.2725C11.1658 10.3807 11.1415 10.4873 11.0997 10.5922C11.0578 10.6971 10.9953 10.7908 10.9122 10.8733C10.7459 11.0381 10.5433 11.1217 10.3045 11.1238C10.0656 11.126 9.86374 11.0439 9.69886 10.8776C9.61642 10.7945 9.55314 10.6987 9.50902 10.5902C9.4649 10.4818 9.44625 10.3734 9.45308 10.2652L9.49041 3.75941L2.35242 10.8367C2.17973 11.0079 1.97556 11.093 1.73991 11.092C1.50426 11.091 1.30083 11.0042 1.1296 10.8315C0.964719 10.6652 0.882781 10.4642 0.883787 10.2286C0.884793 9.99292 0.971643 9.78948 1.14434 9.61826L8.28233 2.54096L1.7765 2.52274C1.66186 2.52225 1.55368 2.4995 1.45197 2.45448C1.35026 2.40946 1.25819 2.34538 1.17574 2.26223C1.10599 2.19187 1.05059 2.11362 1.00956 2.02746C0.96853 1.9413 0.945034 1.85045 0.939074 1.75489L0.920375 1.65927C0.920864 1.54463 0.942032 1.43486 0.983878 1.32995C1.02572 1.22504 1.08822 1.13136 1.17137 1.04892C1.25452 0.966481 1.34873 0.904785 1.45399 0.863837C1.55925 0.822888 1.6692 0.802658 1.78384 0.803147L10.3436 0.839695L10.3531 0.849289Z" fill="white"/>
</svg>
